<mxfile host="65bd71144e">
    <diagram id="UNrFfbNWJeeACcQ4XwLn" name="Page-1">
        <mxGraphModel dx="960" dy="723" grid="1" gridSize="10" guides="1" tooltips="1" connect="1" arrows="1" fold="1" page="1" pageScale="1" pageWidth="850" pageHeight="1100" math="0" shadow="0">
            <root>
                <mxCell id="0"/>
                <mxCell id="1" parent="0"/>
                <mxCell id="3" value="" style="whiteSpace=wrap;html=1;" vertex="1" parent="1">
                    <mxGeometry x="160" y="80" width="400" height="610" as="geometry"/>
                </mxCell>
                <mxCell id="4" value="home" style="whiteSpace=wrap;html=1;" vertex="1" parent="1">
                    <mxGeometry x="160" y="80" width="400" height="30" as="geometry"/>
                </mxCell>
                <mxCell id="5" value="box1" style="whiteSpace=wrap;html=1;" vertex="1" parent="1">
                    <mxGeometry x="170" y="120" width="380" height="250" as="geometry"/>
                </mxCell>
                <mxCell id="6" value="box2" style="whiteSpace=wrap;html=1;" vertex="1" parent="1">
                    <mxGeometry x="170" y="370" width="380" height="250" as="geometry"/>
                </mxCell>
            </root>
        </mxGraphModel>
    </diagram>
</mxfile>